<svg width="157" height="95" viewBox="0 0 157 95" fill="none" xmlns="http://www.w3.org/2000/svg">
<g filter="url(#filter0_i_3_2)">
<path d="M27.6364 94.9091C22.6667 94.9091 18.0909 93.6061 13.9091 91C9.75758 88.3939 6.42424 84.4394 3.90909 79.1364C1.42424 73.8333 0.181818 67.1515 0.181818 59.0909C0.181818 50.6667 1.48485 43.8182 4.09091 38.5455C6.72727 33.2727 10.1212 29.4091 14.2727 26.9545C18.4545 24.5 22.8485 23.2727 27.4545 23.2727C30.9091 23.2727 33.9394 23.8788 36.5455 25.0909C39.1515 26.2727 41.3333 27.8636 43.0909 29.8636C44.8485 31.8333 46.1818 34 47.0909 36.3636H47.4545V0.909088H72.5455V94H47.6364V82.5455H47.0909C46.1212 84.9091 44.7273 87.0303 42.9091 88.9091C41.1212 90.7576 38.9394 92.2273 36.3636 93.3182C33.8182 94.3788 30.9091 94.9091 27.6364 94.9091ZM36.9091 75.6364C39.2121 75.6364 41.1818 74.9697 42.8182 73.6364C44.4849 72.2727 45.7576 70.3636 46.6364 67.9091C47.5455 65.4242 48 62.4848 48 59.0909C48 55.6364 47.5455 52.6818 46.6364 50.2273C45.7576 47.7424 44.4849 45.8485 42.8182 44.5455C41.1818 43.2121 39.2121 42.5455 36.9091 42.5455C34.6061 42.5455 32.6364 43.2121 31 44.5455C29.3939 45.8485 28.1515 47.7424 27.2727 50.2273C26.4242 52.6818 26 55.6364 26 59.0909C26 62.5455 26.4242 65.5152 27.2727 68C28.1515 70.4545 29.3939 72.3485 31 73.6818C32.6364 74.9848 34.6061 75.6364 36.9091 75.6364Z" fill="black"/>
<path d="M84.5 94V0.909088H109.591V36.3636H109.955C110.864 34 112.197 31.8333 113.955 29.8636C115.712 27.8636 117.894 26.2727 120.5 25.0909C123.106 23.8788 126.136 23.2727 129.591 23.2727C134.197 23.2727 138.576 24.5 142.727 26.9545C146.909 29.4091 150.303 33.2727 152.909 38.5455C155.545 43.8182 156.864 50.6667 156.864 59.0909C156.864 67.1515 155.606 73.8333 153.091 79.1364C150.606 84.4394 147.273 88.3939 143.091 91C138.939 93.6061 134.379 94.9091 129.409 94.9091C126.136 94.9091 123.212 94.3788 120.636 93.3182C118.091 92.2273 115.909 90.7576 114.091 88.9091C112.303 87.0303 110.924 84.9091 109.955 82.5455H109.409V94H84.5ZM109.045 59.0909C109.045 62.4848 109.485 65.4242 110.364 67.9091C111.273 70.3636 112.545 72.2727 114.182 73.6364C115.848 74.9697 117.833 75.6364 120.136 75.6364C122.439 75.6364 124.394 74.9848 126 73.6818C127.636 72.3485 128.879 70.4545 129.727 68C130.606 65.5152 131.045 62.5455 131.045 59.0909C131.045 55.6364 130.606 52.6818 129.727 50.2273C128.879 47.7424 127.636 45.8485 126 44.5455C124.394 43.2121 122.439 42.5455 120.136 42.5455C117.833 42.5455 115.848 43.2121 114.182 44.5455C112.545 45.8485 111.273 47.7424 110.364 50.2273C109.485 52.6818 109.045 55.6364 109.045 59.0909Z" fill="#C4E300"/>
</g>
<defs>
<filter id="filter0_i_3_2" x="0.181824" y="0.909088" width="156.682" height="98" filterUnits="userSpaceOnUse" color-interpolation-filters="sRGB">
<feFlood flood-opacity="0" result="BackgroundImageFix"/>
<feBlend mode="normal" in="SourceGraphic" in2="BackgroundImageFix" result="shape"/>
<feColorMatrix in="SourceAlpha" type="matrix" values="0 0 0 0 0 0 0 0 0 0 0 0 0 0 0 0 0 0 127 0" result="hardAlpha"/>
<feOffset dy="4"/>
<feGaussianBlur stdDeviation="2"/>
<feComposite in2="hardAlpha" operator="arithmetic" k2="-1" k3="1"/>
<feColorMatrix type="matrix" values="0 0 0 0 0 0 0 0 0 0 0 0 0 0 0 0 0 0 0.25 0"/>
<feBlend mode="normal" in2="shape" result="effect1_innerShadow_3_2"/>
</filter>
</defs>
</svg>
